<?xml version="1.0" encoding="UTF-8" standalone="no"?>
<!DOCTYPE svg PUBLIC "-//W3C//DTD SVG 1.1//EN"
 "http://www.w3.org/Graphics/SVG/1.1/DTD/svg11.dtd">
<!-- Generated by graphviz version 2.38.0 (20140413.2041)
 -->
<!-- Title: %3 Pages: 1 -->
<svg width="808pt" height="1316pt"
 viewBox="0.00 0.00 807.50 1316.00" xmlns="http://www.w3.org/2000/svg" xmlns:xlink="http://www.w3.org/1999/xlink">
<g id="graph0" class="graph" transform="scale(1 1) rotate(0) translate(4 1312)">
<title>%3</title>
<polygon fill="white" stroke="none" points="-4,4 -4,-1312 803.5,-1312 803.5,4 -4,4"/>
<!-- desire -->
<g id="node1" class="node"><title>desire</title>
<g id="a_node1"><a xlink:href="https://en.m.wikipedia.org/wiki/Netherlands" xlink:title="Obtain a desire to live and work in &lt;font color=&#39;blue&#39;&gt;the Netherlands&lt;/font&gt;">
<polygon fill="none" stroke="blue" points="617.5,-1308 321.5,-1308 321.5,-1272 617.5,-1272 617.5,-1308"/>
<text text-anchor="start" x="329.5" y="-1287.3" font-family="Times,serif" font-size="14.00">Obtain a desire to live and work in </text>
<text text-anchor="start" x="523.5" y="-1287.3" font-family="Times,serif" font-size="14.00" fill="blue">the Netherlands</text>
</a>
</g>
</g>
<!-- docsind -->
<g id="node2" class="node"><title>docsind</title>
<g id="a_node2"><a xlink:href="https://ehome.dha.gov.za/eHomeAffairs/" xlink:title="Obtain a myriad of documents proving your existence:\n
 &#160;Unabridged birth certificates of everyone applying
 &#160;Unabridged Marriage Certificate
 &#160;Passports of everyone applying (valid for at least 6 months)">
<polygon fill="none" stroke="blue" points="492.5,-1221 142.5,-1221 142.5,-1137 492.5,-1137 492.5,-1221"/>
<text text-anchor="middle" x="317.5" y="-1205.8" font-family="Times,serif" font-size="14.00">Obtain a myriad of documents proving your existence:</text>
<text text-anchor="middle" x="317.5" y="-1174.8" font-family="Times,serif" font-size="14.00"> &#160;Unabridged birth certificates of everyone applying</text>
<text text-anchor="middle" x="317.5" y="-1159.8" font-family="Times,serif" font-size="14.00"> &#160;Unabridged Marriage Certificate</text>
<text text-anchor="middle" x="317.5" y="-1144.8" font-family="Times,serif" font-size="14.00"> &#160;Passports of everyone applying (valid for at least 6 months)</text>
</a>
</g>
</g>
<!-- desire&#45;&gt;docsind -->
<g id="edge1" class="edge"><title>desire&#45;&gt;docsind</title>
<path fill="none" stroke="black" d="M445.75,-1271.97C428.869,-1259.86 405.323,-1242.98 383.008,-1226.98"/>
<polygon fill="black" stroke="black" points="385.023,-1224.11 374.856,-1221.13 380.943,-1229.8 385.023,-1224.11"/>
<text text-anchor="middle" x="450" y="-1242.8" font-family="Times,serif" font-size="14.00">~6 months</text>
</g>
<!-- sponsorinit -->
<g id="node3" class="node"><title>sponsorinit</title>
<polygon fill="none" stroke="black" points="728,-1086 495,-1086 495,-1050 728,-1050 728,-1086"/>
<text text-anchor="middle" x="611.5" y="-1064.3" font-family="Times,serif" font-size="14.00">Get a sponsor (typically via a job offer)</text>
</g>
<!-- desire&#45;&gt;sponsorinit -->
<g id="edge4" class="edge"><title>desire&#45;&gt;sponsorinit</title>
<path fill="none" stroke="black" d="M480.643,-1271.74C505.476,-1233.26 565.482,-1140.3 594.807,-1094.86"/>
<polygon fill="black" stroke="black" points="597.927,-1096.48 600.409,-1086.18 592.046,-1092.69 597.927,-1096.48"/>
</g>
<!-- apostilled -->
<g id="node4" class="node"><title>apostilled</title>
<g id="a_node4"><a xlink:href="http://www.dirco.gov.za/consular/legalisation.htm" xlink:title="Get the Marriage and Birth Certificates legalised/apostilled at &#160;&lt;font color=&#39;blue&#39;&gt;dirco.gov.za&lt;/font&gt;">
<polygon fill="none" stroke="blue" points="477.5,-1086 49.5,-1086 49.5,-1050 477.5,-1050 477.5,-1086"/>
<text text-anchor="start" x="57.5" y="-1065.3" font-family="Times,serif" font-size="14.00">Get the Marriage and Birth Certificates legalised/apostilled at &#160;</text>
<text text-anchor="start" x="401.5" y="-1065.3" font-family="Times,serif" font-size="14.00" fill="blue">dirco.gov.za</text>
</a>
</g>
</g>
<!-- docsind&#45;&gt;apostilled -->
<g id="edge2" class="edge"><title>docsind&#45;&gt;apostilled</title>
<path fill="none" stroke="black" d="M297.085,-1136.79C290.203,-1122.9 282.714,-1107.78 276.558,-1095.36"/>
<polygon fill="black" stroke="black" points="279.519,-1093.45 271.943,-1086.04 273.246,-1096.56 279.519,-1093.45"/>
<text text-anchor="middle" x="311" y="-1107.8" font-family="Times,serif" font-size="14.00">2&#45;3 days</text>
</g>
<!-- ind -->
<g id="node5" class="node"><title>ind</title>
<g id="a_node5"><a xlink:href="https://ind.nl/" xlink:title="Sponsor applies at &lt;font color=&#39;blue&#39;&gt;the IND&lt;/font&gt;">
<polygon fill="none" stroke="blue" points="560,-1013 395,-1013 395,-977 560,-977 560,-1013"/>
<text text-anchor="start" x="403" y="-992.3" font-family="Times,serif" font-size="14.00">Sponsor applies at </text>
<text text-anchor="start" x="507" y="-992.3" font-family="Times,serif" font-size="14.00" fill="blue">the IND</text>
</a>
</g>
</g>
<!-- sponsorinit&#45;&gt;ind -->
<g id="edge5" class="edge"><title>sponsorinit&#45;&gt;ind</title>
<path fill="none" stroke="black" d="M579.404,-1049.99C561.223,-1040.36 538.285,-1028.21 518.777,-1017.87"/>
<polygon fill="black" stroke="black" points="520.274,-1014.7 509.799,-1013.11 516.996,-1020.89 520.274,-1014.7"/>
</g>
<!-- apostilled&#45;&gt;ind -->
<g id="edge3" class="edge"><title>apostilled&#45;&gt;ind</title>
<path fill="none" stroke="black" d="M314.758,-1049.99C345.239,-1039.88 384.092,-1026.99 416.19,-1016.34"/>
<polygon fill="black" stroke="black" points="417.529,-1019.58 425.918,-1013.11 415.325,-1012.94 417.529,-1019.58"/>
</g>
<!-- mvvapproval -->
<g id="node6" class="node"><title>mvvapproval</title>
<polygon fill="none" stroke="black" points="586.5,-926 368.5,-926 368.5,-890 586.5,-890 586.5,-926"/>
<text text-anchor="middle" x="477.5" y="-904.3" font-family="Times,serif" font-size="14.00">IND approves MVV (long&#45;stay visa)</text>
</g>
<!-- ind&#45;&gt;mvvapproval -->
<g id="edge6" class="edge"><title>ind&#45;&gt;mvvapproval</title>
<path fill="none" stroke="black" d="M477.5,-976.799C477.5,-965.163 477.5,-949.548 477.5,-936.237"/>
<polygon fill="black" stroke="black" points="481,-936.175 477.5,-926.175 474,-936.175 481,-936.175"/>
<text text-anchor="middle" x="505.5" y="-947.8" font-family="Times,serif" font-size="14.00">2&#45;3 weeks</text>
</g>
<!-- zadutchembassy -->
<g id="node7" class="node"><title>zadutchembassy</title>
<g id="a_node7"><a xlink:href="https://www.netherlandsandyou.nl/your-country-and-the-netherlands/south-africa/travel-and-residence/applying-for-a-long-stay-visa-mvv" xlink:title="Make an &lt;font color=&#39;blue&#39;&gt;MVV appointment&lt;/font&gt; &#160;(one for each family member) at the Dutch Embassy in SA">
<polygon fill="none" stroke="blue" points="730.5,-853 224.5,-853 224.5,-817 730.5,-817 730.5,-853"/>
<text text-anchor="start" x="232.5" y="-832.3" font-family="Times,serif" font-size="14.00">Make an </text>
<text text-anchor="start" x="284.5" y="-832.3" font-family="Times,serif" font-size="14.00" fill="blue">MVV appointment</text>
<text text-anchor="start" x="389.5" y="-832.3" font-family="Times,serif" font-size="14.00"> &#160;(one for each family member) at the Dutch Embassy in SA</text>
</a>
</g>
</g>
<!-- mvvapproval&#45;&gt;zadutchembassy -->
<g id="edge7" class="edge"><title>mvvapproval&#45;&gt;zadutchembassy</title>
<path fill="none" stroke="black" d="M477.5,-889.813C477.5,-881.789 477.5,-872.047 477.5,-863.069"/>
<polygon fill="black" stroke="black" points="481,-863.029 477.5,-853.029 474,-863.029 481,-863.029"/>
</g>
<!-- mvvcomplete -->
<g id="node8" class="node"><title>mvvcomplete</title>
<polygon fill="none" stroke="black" points="658.5,-766 296.5,-766 296.5,-730 658.5,-730 658.5,-766"/>
<text text-anchor="middle" x="477.5" y="-744.3" font-family="Times,serif" font-size="14.00">Get an mvv&#45;visumsticker in each Passport (valid for 3 months)</text>
</g>
<!-- zadutchembassy&#45;&gt;mvvcomplete -->
<g id="edge8" class="edge"><title>zadutchembassy&#45;&gt;mvvcomplete</title>
<path fill="none" stroke="black" d="M477.5,-816.799C477.5,-805.163 477.5,-789.548 477.5,-776.237"/>
<polygon fill="black" stroke="black" points="481,-776.175 477.5,-766.175 474,-776.175 481,-776.175"/>
<text text-anchor="middle" x="612.5" y="-787.8" font-family="Times,serif" font-size="14.00">5&#45;7 working days after you hand in your passport</text>
</g>
<!-- arrangeaccom -->
<g id="node9" class="node"><title>arrangeaccom</title>
<polygon fill="none" stroke="black" points="582,-693 373,-693 373,-657 582,-657 582,-693"/>
<text text-anchor="middle" x="477.5" y="-671.3" font-family="Times,serif" font-size="14.00">Pay for flights and accommodation</text>
</g>
<!-- mvvcomplete&#45;&gt;arrangeaccom -->
<g id="edge9" class="edge"><title>mvvcomplete&#45;&gt;arrangeaccom</title>
<path fill="none" stroke="black" d="M477.5,-729.813C477.5,-721.789 477.5,-712.047 477.5,-703.069"/>
<polygon fill="black" stroke="black" points="481,-703.029 477.5,-693.029 474,-703.029 481,-703.029"/>
</g>
<!-- gemeenteafspraak1 -->
<g id="node10" class="node"><title>gemeenteafspraak1</title>
<polygon fill="none" stroke="black" points="636,-620 319,-620 319,-584 636,-584 636,-620"/>
<text text-anchor="middle" x="477.5" y="-598.3" font-family="Times,serif" font-size="14.00">Make an appointment at your gemeente (municipality)</text>
</g>
<!-- arrangeaccom&#45;&gt;gemeenteafspraak1 -->
<g id="edge10" class="edge"><title>arrangeaccom&#45;&gt;gemeenteafspraak1</title>
<path fill="none" stroke="black" d="M477.5,-656.813C477.5,-648.789 477.5,-639.047 477.5,-630.069"/>
<polygon fill="black" stroke="black" points="481,-630.029 477.5,-620.029 474,-630.029 481,-630.029"/>
</g>
<!-- indnlafspraak -->
<g id="node12" class="node"><title>indnlafspraak</title>
<g id="a_node12"><a xlink:href="https://ind.nl/en/Pages/Appointment-to-collect-your-residence-document.aspx " xlink:title="&lt;font color=&#39;blue&#39;&gt;Make an appointment&lt;/font&gt; &#160;to pick up your residence card at the IND in the Netherlands">
<polygon fill="none" stroke="blue" points="715,-547 240,-547 240,-511 715,-511 715,-547"/>
<text text-anchor="start" x="248" y="-526.3" font-family="Times,serif" font-size="14.00" fill="blue">Make an appointment</text>
<text text-anchor="start" x="369" y="-526.3" font-family="Times,serif" font-size="14.00"> &#160;to pick up your residence card at the IND in the Netherlands</text>
</a>
</g>
</g>
<!-- gemeenteafspraak1&#45;&gt;indnlafspraak -->
<g id="edge11" class="edge"><title>gemeenteafspraak1&#45;&gt;indnlafspraak</title>
<path fill="none" stroke="black" d="M477.5,-583.813C477.5,-575.789 477.5,-566.047 477.5,-557.069"/>
<polygon fill="black" stroke="black" points="481,-557.029 477.5,-547.029 474,-557.029 481,-557.029"/>
</g>
<!-- gemeentebesoek -->
<g id="node11" class="node"><title>gemeentebesoek</title>
<polygon fill="none" stroke="black" points="338.5,-401 136.5,-401 136.5,-365 338.5,-365 338.5,-401"/>
<text text-anchor="middle" x="237.5" y="-379.3" font-family="Times,serif" font-size="14.00">Be at your gemeente appointment</text>
</g>
<!-- gemeentedocs -->
<g id="node13" class="node"><title>gemeentedocs</title>
<polygon fill="none" stroke="black" points="407.5,-328 67.5,-328 67.5,-292 407.5,-292 407.5,-328"/>
<text text-anchor="middle" x="237.5" y="-306.3" font-family="Times,serif" font-size="14.00">Supply all the apostilled documents proving your existence</text>
</g>
<!-- gemeentebesoek&#45;&gt;gemeentedocs -->
<g id="edge19" class="edge"><title>gemeentebesoek&#45;&gt;gemeentedocs</title>
<path fill="none" stroke="black" d="M237.5,-364.813C237.5,-356.789 237.5,-347.047 237.5,-338.069"/>
<polygon fill="black" stroke="black" points="241,-338.029 237.5,-328.029 234,-338.029 241,-338.029"/>
</g>
<!-- za2nl -->
<g id="node14" class="node"><title>za2nl</title>
<polygon fill="none" stroke="black" points="546.5,-474 408.5,-474 408.5,-438 546.5,-438 546.5,-474"/>
<text text-anchor="middle" x="477.5" y="-452.3" font-family="Times,serif" font-size="14.00">Fly to the Netherlands</text>
</g>
<!-- indnlafspraak&#45;&gt;za2nl -->
<g id="edge12" class="edge"><title>indnlafspraak&#45;&gt;za2nl</title>
<path fill="none" stroke="black" d="M477.5,-510.813C477.5,-502.789 477.5,-493.047 477.5,-484.069"/>
<polygon fill="black" stroke="black" points="481,-484.029 477.5,-474.029 474,-484.029 481,-484.029"/>
</g>
<!-- bsn -->
<g id="node20" class="node"><title>bsn</title>
<g id="a_node20"><a xlink:href="https://www.government.nl/topics/personal-data/citizen-service-number-bsn" xlink:title="Get a &lt;font color=&#39;blue&#39;&gt;BSN&lt;/font&gt; &#160;– Burgerservicenummer">
<polygon fill="none" stroke="blue" points="346.5,-255 128.5,-255 128.5,-219 346.5,-219 346.5,-255"/>
<text text-anchor="start" x="136.5" y="-234.3" font-family="Times,serif" font-size="14.00">Get a </text>
<text text-anchor="start" x="170.5" y="-234.3" font-family="Times,serif" font-size="14.00" fill="blue">BSN</text>
<text text-anchor="start" x="197.5" y="-234.3" font-family="Times,serif" font-size="14.00"> &#160;– Burgerservicenummer</text>
</a>
</g>
</g>
<!-- gemeentedocs&#45;&gt;bsn -->
<g id="edge20" class="edge"><title>gemeentedocs&#45;&gt;bsn</title>
<path fill="none" stroke="black" d="M237.5,-291.813C237.5,-283.789 237.5,-274.047 237.5,-265.069"/>
<polygon fill="black" stroke="black" points="241,-265.029 237.5,-255.029 234,-265.029 241,-265.029"/>
</g>
<!-- za2nl&#45;&gt;gemeentebesoek -->
<g id="edge14" class="edge"><title>za2nl&#45;&gt;gemeentebesoek</title>
<path fill="none" stroke="black" d="M420.014,-437.994C385.536,-427.794 341.505,-414.768 305.329,-404.066"/>
<polygon fill="black" stroke="black" points="305.931,-400.594 295.349,-401.114 303.945,-407.307 305.931,-400.594"/>
</g>
<!-- indresidence -->
<g id="node15" class="node"><title>indresidence</title>
<polygon fill="none" stroke="black" points="598,-401 357,-401 357,-365 598,-365 598,-401"/>
<text text-anchor="middle" x="477.5" y="-379.3" font-family="Times,serif" font-size="14.00">Pick up residence permit card at the IND</text>
</g>
<!-- za2nl&#45;&gt;indresidence -->
<g id="edge13" class="edge"><title>za2nl&#45;&gt;indresidence</title>
<path fill="none" stroke="black" d="M477.5,-437.813C477.5,-429.789 477.5,-420.047 477.5,-411.069"/>
<polygon fill="black" stroke="black" points="481,-411.029 477.5,-401.029 474,-411.029 481,-411.029"/>
</g>
<!-- startjob -->
<g id="node17" class="node"><title>startjob</title>
<polygon fill="none" stroke="black" points="717,-401 616,-401 616,-365 717,-365 717,-401"/>
<text text-anchor="middle" x="666.5" y="-379.3" font-family="Times,serif" font-size="14.00">Start a new Job</text>
</g>
<!-- za2nl&#45;&gt;startjob -->
<g id="edge15" class="edge"><title>za2nl&#45;&gt;startjob</title>
<path fill="none" stroke="black" d="M522.77,-437.994C549.342,-428.012 583.118,-415.324 611.25,-404.755"/>
<polygon fill="black" stroke="black" points="612.814,-407.907 620.944,-401.114 610.352,-401.354 612.814,-407.907"/>
</g>
<!-- getfibre -->
<g id="node16" class="node"><title>getfibre</title>
<polygon fill="none" stroke="black" points="90.5,-109 22.5,-109 22.5,-73 90.5,-73 90.5,-109"/>
<text text-anchor="middle" x="56.5" y="-87.3" font-family="Times,serif" font-size="14.00">Get Fibre</text>
</g>
<!-- sponsor30 -->
<g id="node18" class="node"><title>sponsor30</title>
<g id="a_node18"><a xlink:href="https://www.iamsterdam.com/en/living/take-care-of-official-matters/highly-skilled-migrants/thirty-percent-ruling" xlink:title="Sponsor/Employer applies for the &lt;font color=&#39;blue&#39;&gt;30% ruling&lt;/font&gt;">
<polygon fill="none" stroke="blue" points="799.5,-328 533.5,-328 533.5,-292 799.5,-292 799.5,-328"/>
<text text-anchor="start" x="541.5" y="-307.3" font-family="Times,serif" font-size="14.00">Sponsor/Employer applies for the </text>
<text text-anchor="start" x="729.5" y="-307.3" font-family="Times,serif" font-size="14.00" fill="blue">30% ruling</text>
</a>
</g>
</g>
<!-- startjob&#45;&gt;sponsor30 -->
<g id="edge16" class="edge"><title>startjob&#45;&gt;sponsor30</title>
<path fill="none" stroke="black" d="M666.5,-364.813C666.5,-356.789 666.5,-347.047 666.5,-338.069"/>
<polygon fill="black" stroke="black" points="670,-338.029 666.5,-328.029 663,-338.029 670,-338.029"/>
</g>
<!-- receive30 -->
<g id="node19" class="node"><title>receive30</title>
<polygon fill="none" stroke="black" points="754.5,-255 578.5,-255 578.5,-219 754.5,-219 754.5,-255"/>
<text text-anchor="middle" x="666.5" y="-233.3" font-family="Times,serif" font-size="14.00">Receive 30% ruling approval</text>
</g>
<!-- sponsor30&#45;&gt;receive30 -->
<g id="edge17" class="edge"><title>sponsor30&#45;&gt;receive30</title>
<path fill="none" stroke="black" d="M666.5,-291.813C666.5,-283.789 666.5,-274.047 666.5,-265.069"/>
<polygon fill="black" stroke="black" points="670,-265.029 666.5,-255.029 663,-265.029 670,-265.029"/>
</g>
<!-- Get a Dutch Drivers license -->
<g id="node25" class="node"><title>Get a Dutch Drivers license</title>
<polygon fill="none" stroke="black" points="750.5,-182 582.5,-182 582.5,-146 750.5,-146 750.5,-182"/>
<text text-anchor="middle" x="666.5" y="-160.3" font-family="Times,serif" font-size="14.00">Get a Dutch Drivers license</text>
</g>
<!-- receive30&#45;&gt;Get a Dutch Drivers license -->
<g id="edge18" class="edge"><title>receive30&#45;&gt;Get a Dutch Drivers license</title>
<path fill="none" stroke="black" d="M666.5,-218.813C666.5,-210.789 666.5,-201.047 666.5,-192.069"/>
<polygon fill="black" stroke="black" points="670,-192.029 666.5,-182.029 663,-192.029 670,-192.029"/>
</g>
<!-- bankaccount -->
<g id="node21" class="node"><title>bankaccount</title>
<polygon fill="none" stroke="black" points="137,-182 0,-182 0,-146 137,-146 137,-182"/>
<text text-anchor="middle" x="68.5" y="-160.3" font-family="Times,serif" font-size="14.00">Open a Bank Account</text>
</g>
<!-- bsn&#45;&gt;bankaccount -->
<g id="edge22" class="edge"><title>bsn&#45;&gt;bankaccount</title>
<path fill="none" stroke="black" d="M197.02,-218.994C173.468,-209.099 143.586,-196.545 118.564,-186.033"/>
<polygon fill="black" stroke="black" points="119.81,-182.76 109.235,-182.114 117.099,-189.214 119.81,-182.76"/>
</g>
<!-- digid -->
<g id="node24" class="node"><title>digid</title>
<g id="a_node24"><a xlink:href="https://www.digid.nl/en/apply-or-activate-digid" xlink:title="&lt;font color=&#39;blue&#39;&gt;Apply for a DigiD&lt;/font&gt; &#160;for online access to government sites">
<polygon fill="none" stroke="blue" points="483.5,-182 155.5,-182 155.5,-146 483.5,-146 483.5,-182"/>
<text text-anchor="start" x="163.5" y="-161.3" font-family="Times,serif" font-size="14.00" fill="blue">Apply for a DigiD</text>
<text text-anchor="start" x="264.5" y="-161.3" font-family="Times,serif" font-size="14.00"> &#160;for online access to government sites</text>
</a>
</g>
</g>
<!-- bsn&#45;&gt;digid -->
<g id="edge21" class="edge"><title>bsn&#45;&gt;digid</title>
<path fill="none" stroke="black" d="M257.35,-218.813C267.825,-209.743 280.837,-198.477 292.243,-188.6"/>
<polygon fill="black" stroke="black" points="294.564,-191.221 299.833,-182.029 289.982,-185.929 294.564,-191.221"/>
</g>
<!-- bankaccount&#45;&gt;getfibre -->
<g id="edge25" class="edge"><title>bankaccount&#45;&gt;getfibre</title>
<path fill="none" stroke="black" d="M65.5951,-145.813C64.2391,-137.789 62.5925,-128.047 61.0751,-119.069"/>
<polygon fill="black" stroke="black" points="64.4958,-118.306 59.3781,-109.029 57.5936,-119.472 64.4958,-118.306"/>
</g>
<!-- zorgverzekering -->
<g id="node22" class="node"><title>zorgverzekering</title>
<polygon fill="none" stroke="black" points="354,-109 109,-109 109,-73 354,-73 354,-109"/>
<text text-anchor="middle" x="231.5" y="-87.3" font-family="Times,serif" font-size="14.00">Apply for Zorgverzekering (Medical Aid)</text>
</g>
<!-- bankaccount&#45;&gt;zorgverzekering -->
<g id="edge23" class="edge"><title>bankaccount&#45;&gt;zorgverzekering</title>
<path fill="none" stroke="black" d="M107.543,-145.994C130.158,-136.143 158.826,-123.656 182.894,-113.172"/>
<polygon fill="black" stroke="black" points="184.441,-116.316 192.211,-109.114 181.645,-109.898 184.441,-116.316"/>
</g>
<!-- doctor -->
<g id="node23" class="node"><title>doctor</title>
<polygon fill="none" stroke="black" points="294.5,-36 168.5,-36 168.5,-0 294.5,-0 294.5,-36"/>
<text text-anchor="middle" x="231.5" y="-14.3" font-family="Times,serif" font-size="14.00">Register at a Doctor</text>
</g>
<!-- zorgverzekering&#45;&gt;doctor -->
<g id="edge24" class="edge"><title>zorgverzekering&#45;&gt;doctor</title>
<path fill="none" stroke="black" d="M231.5,-72.8129C231.5,-64.7895 231.5,-55.0475 231.5,-46.0691"/>
<polygon fill="black" stroke="black" points="235,-46.0288 231.5,-36.0288 228,-46.0289 235,-46.0288"/>
</g>
</g>
</svg>
