<?xml version="1.0" encoding="UTF-8" standalone="no"?>
<!DOCTYPE svg PUBLIC "-//W3C//DTD SVG 1.1//EN"
 "http://www.w3.org/Graphics/SVG/1.1/DTD/svg11.dtd">
<!-- Generated by graphviz version 2.38.0 (20140413.2041)
 -->
<!-- Title: %3 Pages: 1 -->
<svg width="919pt" height="1244pt"
 viewBox="0.00 0.00 919.00 1244.00" xmlns="http://www.w3.org/2000/svg" xmlns:xlink="http://www.w3.org/1999/xlink">
<g id="graph0" class="graph" transform="scale(1 1) rotate(0) translate(4 1240)">
<title>%3</title>
<polygon fill="white" stroke="none" points="-4,4 -4,-1240 915,-1240 915,4 -4,4"/>
<!-- desire -->
<g id="node1" class="node"><title>desire</title>
<g id="a_node1"><a xlink:href="https://en.m.wikipedia.org/wiki/Netherlands" xlink:title="Obtain a desire to live and work in the Netherlands">
<polygon fill="none" stroke="black" points="674,-1236 378,-1236 378,-1200 674,-1200 674,-1236"/>
<text text-anchor="middle" x="526" y="-1214.3" font-family="Times,serif" font-size="14.00">Obtain a desire to live and work in the Netherlands</text>
</a>
</g>
</g>
<!-- sponsorinit -->
<g id="node2" class="node"><title>sponsorinit</title>
<polygon fill="none" stroke="black" points="469.5,-1044 236.5,-1044 236.5,-1008 469.5,-1008 469.5,-1044"/>
<text text-anchor="middle" x="353" y="-1022.3" font-family="Times,serif" font-size="14.00">Get a sponsor (typically via a job offer)</text>
</g>
<!-- desire&#45;&gt;sponsorinit -->
<g id="edge4" class="edge"><title>desire&#45;&gt;sponsorinit</title>
<path fill="none" stroke="black" d="M510.342,-1199.8C479.592,-1166.03 411.213,-1090.93 375.579,-1051.8"/>
<polygon fill="black" stroke="black" points="377.818,-1049.06 368.498,-1044.02 372.642,-1053.77 377.818,-1049.06"/>
</g>
<!-- docsind -->
<g id="node3" class="node"><title>docsind</title>
<g id="a_node3"><a xlink:href="https://ehome.dha.gov.za/eHomeAffairs/" xlink:title="Obtain a myriad of documents proving your existence:\n
 &#160;Unabridged birth certificates of everyone applying
 &#160;Unabridged Marriage Certificate
 &#160;Passports of everyone applying (valid for at least 6 months)">
<polygon fill="none" stroke="black" points="838,-1164 488,-1164 488,-1080 838,-1080 838,-1164"/>
<text text-anchor="middle" x="663" y="-1148.8" font-family="Times,serif" font-size="14.00">Obtain a myriad of documents proving your existence:</text>
<text text-anchor="middle" x="663" y="-1117.8" font-family="Times,serif" font-size="14.00"> &#160;Unabridged birth certificates of everyone applying</text>
<text text-anchor="middle" x="663" y="-1102.8" font-family="Times,serif" font-size="14.00"> &#160;Unabridged Marriage Certificate</text>
<text text-anchor="middle" x="663" y="-1087.8" font-family="Times,serif" font-size="14.00"> &#160;Passports of everyone applying (valid for at least 6 months)</text>
</a>
</g>
</g>
<!-- desire&#45;&gt;docsind -->
<g id="edge1" class="edge"><title>desire&#45;&gt;docsind</title>
<path fill="none" stroke="black" d="M550.81,-1199.98C563.171,-1191.5 578.791,-1180.78 594.416,-1170.06"/>
<polygon fill="black" stroke="black" points="596.811,-1172.66 603.076,-1164.12 592.851,-1166.89 596.811,-1172.66"/>
</g>
<!-- ind -->
<g id="node5" class="node"><title>ind</title>
<g id="a_node5"><a xlink:href="https://ind.nl/" xlink:title="Sponsor applies at the IND &#45; the Dutch equivalent of Home Affairs">
<polygon fill="none" stroke="black" points="718,-972 334,-972 334,-936 718,-936 718,-972"/>
<text text-anchor="middle" x="526" y="-950.3" font-family="Times,serif" font-size="14.00">Sponsor applies at the IND &#45; the Dutch equivalent of Home Affairs</text>
</a>
</g>
</g>
<!-- sponsorinit&#45;&gt;ind -->
<g id="edge5" class="edge"><title>sponsorinit&#45;&gt;ind</title>
<path fill="none" stroke="black" d="M395.321,-1007.88C419.181,-998.222 449.172,-986.087 474.403,-975.878"/>
<polygon fill="black" stroke="black" points="475.86,-979.064 483.817,-972.068 473.234,-972.575 475.86,-979.064"/>
</g>
<!-- apostilled -->
<g id="node4" class="node"><title>apostilled</title>
<g id="a_node4"><a xlink:href="http://www.dirco.gov.za/consular/legalisation.htm" xlink:title="Get the Marriage and Birth Certificates legalised/apostilled at dirco.gov.za">
<polygon fill="none" stroke="black" points="911,-1044 487,-1044 487,-1008 911,-1008 911,-1044"/>
<text text-anchor="middle" x="699" y="-1022.3" font-family="Times,serif" font-size="14.00">Get the Marriage and Birth Certificates legalised/apostilled at dirco.gov.za</text>
</a>
</g>
</g>
<!-- docsind&#45;&gt;apostilled -->
<g id="edge2" class="edge"><title>docsind&#45;&gt;apostilled</title>
<path fill="none" stroke="black" d="M678.79,-1079.77C682.138,-1071.03 685.589,-1062.02 688.67,-1053.97"/>
<polygon fill="black" stroke="black" points="692.033,-1054.98 692.341,-1044.39 685.496,-1052.47 692.033,-1054.98"/>
</g>
<!-- apostilled&#45;&gt;ind -->
<g id="edge3" class="edge"><title>apostilled&#45;&gt;ind</title>
<path fill="none" stroke="black" d="M656.679,-1007.88C632.819,-998.222 602.828,-986.087 577.597,-975.878"/>
<polygon fill="black" stroke="black" points="578.766,-972.575 568.183,-972.068 576.14,-979.064 578.766,-972.575"/>
</g>
<!-- mvvapproval -->
<g id="node6" class="node"><title>mvvapproval</title>
<polygon fill="none" stroke="black" points="635,-900 417,-900 417,-864 635,-864 635,-900"/>
<text text-anchor="middle" x="526" y="-878.3" font-family="Times,serif" font-size="14.00">IND approves MVV (long&#45;stay visa)</text>
</g>
<!-- ind&#45;&gt;mvvapproval -->
<g id="edge6" class="edge"><title>ind&#45;&gt;mvvapproval</title>
<path fill="none" stroke="black" d="M526,-935.697C526,-927.983 526,-918.712 526,-910.112"/>
<polygon fill="black" stroke="black" points="529.5,-910.104 526,-900.104 522.5,-910.104 529.5,-910.104"/>
</g>
<!-- zadutchembassy -->
<g id="node7" class="node"><title>zadutchembassy</title>
<g id="a_node7"><a xlink:href="https://www.netherlandsandyou.nl/your-country-and-the-netherlands/south-africa/travel-and-residence/applying-for-a-long-stay-visa-mvv" xlink:title="Make MVV appointment at Dutch Embassy in SA">
<polygon fill="none" stroke="black" points="673.5,-828 378.5,-828 378.5,-792 673.5,-792 673.5,-828"/>
<text text-anchor="middle" x="526" y="-806.3" font-family="Times,serif" font-size="14.00">Make MVV appointment at Dutch Embassy in SA</text>
</a>
</g>
</g>
<!-- mvvapproval&#45;&gt;zadutchembassy -->
<g id="edge7" class="edge"><title>mvvapproval&#45;&gt;zadutchembassy</title>
<path fill="none" stroke="black" d="M526,-863.697C526,-855.983 526,-846.712 526,-838.112"/>
<polygon fill="black" stroke="black" points="529.5,-838.104 526,-828.104 522.5,-838.104 529.5,-838.104"/>
</g>
<!-- mvvcomplete -->
<g id="node8" class="node"><title>mvvcomplete</title>
<polygon fill="none" stroke="black" points="707,-756 345,-756 345,-720 707,-720 707,-756"/>
<text text-anchor="middle" x="526" y="-734.3" font-family="Times,serif" font-size="14.00">Get an mvv&#45;visumsticker in each Passport (valid for 3 months)</text>
</g>
<!-- zadutchembassy&#45;&gt;mvvcomplete -->
<g id="edge8" class="edge"><title>zadutchembassy&#45;&gt;mvvcomplete</title>
<path fill="none" stroke="black" d="M526,-791.697C526,-783.983 526,-774.712 526,-766.112"/>
<polygon fill="black" stroke="black" points="529.5,-766.104 526,-756.104 522.5,-766.104 529.5,-766.104"/>
</g>
<!-- arrangeaccom -->
<g id="node9" class="node"><title>arrangeaccom</title>
<polygon fill="none" stroke="black" points="630.5,-684 421.5,-684 421.5,-648 630.5,-648 630.5,-684"/>
<text text-anchor="middle" x="526" y="-662.3" font-family="Times,serif" font-size="14.00">Pay for flights and accommodation</text>
</g>
<!-- mvvcomplete&#45;&gt;arrangeaccom -->
<g id="edge9" class="edge"><title>mvvcomplete&#45;&gt;arrangeaccom</title>
<path fill="none" stroke="black" d="M526,-719.697C526,-711.983 526,-702.712 526,-694.112"/>
<polygon fill="black" stroke="black" points="529.5,-694.104 526,-684.104 522.5,-694.104 529.5,-694.104"/>
</g>
<!-- gemeenteafspraak1 -->
<g id="node10" class="node"><title>gemeenteafspraak1</title>
<polygon fill="none" stroke="black" points="684.5,-612 367.5,-612 367.5,-576 684.5,-576 684.5,-612"/>
<text text-anchor="middle" x="526" y="-590.3" font-family="Times,serif" font-size="14.00">Make an appointment at your gemeente (municipality)</text>
</g>
<!-- arrangeaccom&#45;&gt;gemeenteafspraak1 -->
<g id="edge10" class="edge"><title>arrangeaccom&#45;&gt;gemeenteafspraak1</title>
<path fill="none" stroke="black" d="M526,-647.697C526,-639.983 526,-630.712 526,-622.112"/>
<polygon fill="black" stroke="black" points="529.5,-622.104 526,-612.104 522.5,-622.104 529.5,-622.104"/>
</g>
<!-- indnlafspraak -->
<g id="node12" class="node"><title>indnlafspraak</title>
<g id="a_node12"><a xlink:href="https://ind.nl/en/Pages/Appointment-to-collect-your-residence-document.aspx " xlink:title="Make an appointment to pick up your residence card at the IND in the Netherlands">
<polygon fill="none" stroke="black" points="761,-540 291,-540 291,-504 761,-504 761,-540"/>
<text text-anchor="middle" x="526" y="-518.3" font-family="Times,serif" font-size="14.00">Make an appointment to pick up your residence card at the IND in the Netherlands</text>
</a>
</g>
</g>
<!-- gemeenteafspraak1&#45;&gt;indnlafspraak -->
<g id="edge11" class="edge"><title>gemeenteafspraak1&#45;&gt;indnlafspraak</title>
<path fill="none" stroke="black" d="M526,-575.697C526,-567.983 526,-558.712 526,-550.112"/>
<polygon fill="black" stroke="black" points="529.5,-550.104 526,-540.104 522.5,-550.104 529.5,-550.104"/>
</g>
<!-- gemeentebesoek -->
<g id="node11" class="node"><title>gemeentebesoek</title>
<polygon fill="none" stroke="black" points="387,-396 185,-396 185,-360 387,-360 387,-396"/>
<text text-anchor="middle" x="286" y="-374.3" font-family="Times,serif" font-size="14.00">Be at your gemeente appointment</text>
</g>
<!-- gemeentedocs -->
<g id="node13" class="node"><title>gemeentedocs</title>
<polygon fill="none" stroke="black" points="456,-324 116,-324 116,-288 456,-288 456,-324"/>
<text text-anchor="middle" x="286" y="-302.3" font-family="Times,serif" font-size="14.00">Supply all the apostilled documents proving your existence</text>
</g>
<!-- gemeentebesoek&#45;&gt;gemeentedocs -->
<g id="edge19" class="edge"><title>gemeentebesoek&#45;&gt;gemeentedocs</title>
<path fill="none" stroke="black" d="M286,-359.697C286,-351.983 286,-342.712 286,-334.112"/>
<polygon fill="black" stroke="black" points="289.5,-334.104 286,-324.104 282.5,-334.104 289.5,-334.104"/>
</g>
<!-- za2nl -->
<g id="node14" class="node"><title>za2nl</title>
<polygon fill="none" stroke="black" points="595,-468 457,-468 457,-432 595,-432 595,-468"/>
<text text-anchor="middle" x="526" y="-446.3" font-family="Times,serif" font-size="14.00">Fly to the Netherlands</text>
</g>
<!-- indnlafspraak&#45;&gt;za2nl -->
<g id="edge12" class="edge"><title>indnlafspraak&#45;&gt;za2nl</title>
<path fill="none" stroke="black" d="M526,-503.697C526,-495.983 526,-486.712 526,-478.112"/>
<polygon fill="black" stroke="black" points="529.5,-478.104 526,-468.104 522.5,-478.104 529.5,-478.104"/>
</g>
<!-- bsn -->
<g id="node20" class="node"><title>bsn</title>
<g id="a_node20"><a xlink:href="https://www.government.nl/topics/personal-data/citizen-service-number-bsn" xlink:title="Get a BSN – Burgerservicenummer">
<polygon fill="none" stroke="black" points="392,-252 180,-252 180,-216 392,-216 392,-252"/>
<text text-anchor="middle" x="286" y="-230.3" font-family="Times,serif" font-size="14.00">Get a BSN – Burgerservicenummer</text>
</a>
</g>
</g>
<!-- gemeentedocs&#45;&gt;bsn -->
<g id="edge20" class="edge"><title>gemeentedocs&#45;&gt;bsn</title>
<path fill="none" stroke="black" d="M286,-287.697C286,-279.983 286,-270.712 286,-262.112"/>
<polygon fill="black" stroke="black" points="289.5,-262.104 286,-252.104 282.5,-262.104 289.5,-262.104"/>
</g>
<!-- za2nl&#45;&gt;gemeentebesoek -->
<g id="edge14" class="edge"><title>za2nl&#45;&gt;gemeentebesoek</title>
<path fill="none" stroke="black" d="M467.596,-431.966C433.48,-422.015 390.25,-409.406 354.528,-398.987"/>
<polygon fill="black" stroke="black" points="355.246,-395.551 344.666,-396.111 353.286,-402.271 355.246,-395.551"/>
</g>
<!-- indresidence -->
<g id="node15" class="node"><title>indresidence</title>
<polygon fill="none" stroke="black" points="646.5,-396 405.5,-396 405.5,-360 646.5,-360 646.5,-396"/>
<text text-anchor="middle" x="526" y="-374.3" font-family="Times,serif" font-size="14.00">Pick up residence permit card at the IND</text>
</g>
<!-- za2nl&#45;&gt;indresidence -->
<g id="edge13" class="edge"><title>za2nl&#45;&gt;indresidence</title>
<path fill="none" stroke="black" d="M526,-431.697C526,-423.983 526,-414.712 526,-406.112"/>
<polygon fill="black" stroke="black" points="529.5,-406.104 526,-396.104 522.5,-406.104 529.5,-406.104"/>
</g>
<!-- startjob -->
<g id="node17" class="node"><title>startjob</title>
<polygon fill="none" stroke="black" points="765.5,-396 664.5,-396 664.5,-360 765.5,-360 765.5,-396"/>
<text text-anchor="middle" x="715" y="-374.3" font-family="Times,serif" font-size="14.00">Start a new Job</text>
</g>
<!-- za2nl&#45;&gt;startjob -->
<g id="edge15" class="edge"><title>za2nl&#45;&gt;startjob</title>
<path fill="none" stroke="black" d="M572.235,-431.876C598.531,-422.137 631.644,-409.872 659.358,-399.608"/>
<polygon fill="black" stroke="black" points="660.754,-402.824 668.916,-396.068 658.322,-396.259 660.754,-402.824"/>
</g>
<!-- getfibre -->
<g id="node16" class="node"><title>getfibre</title>
<polygon fill="none" stroke="black" points="68,-108 0,-108 0,-72 68,-72 68,-108"/>
<text text-anchor="middle" x="34" y="-86.3" font-family="Times,serif" font-size="14.00">Get Fibre</text>
</g>
<!-- sponsor30 -->
<g id="node18" class="node"><title>sponsor30</title>
<g id="a_node18"><a xlink:href="https://www.iamsterdam.com/en/living/take-care-of-official-matters/highly-skilled-migrants/thirty-percent-ruling" xlink:title="Sponsor/Employer applies for 30% ruling">
<polygon fill="none" stroke="black" points="837.5,-324 592.5,-324 592.5,-288 837.5,-288 837.5,-324"/>
<text text-anchor="middle" x="715" y="-302.3" font-family="Times,serif" font-size="14.00">Sponsor/Employer applies for 30% ruling</text>
</a>
</g>
</g>
<!-- startjob&#45;&gt;sponsor30 -->
<g id="edge16" class="edge"><title>startjob&#45;&gt;sponsor30</title>
<path fill="none" stroke="black" d="M715,-359.697C715,-351.983 715,-342.712 715,-334.112"/>
<polygon fill="black" stroke="black" points="718.5,-334.104 715,-324.104 711.5,-334.104 718.5,-334.104"/>
</g>
<!-- receive30 -->
<g id="node19" class="node"><title>receive30</title>
<polygon fill="none" stroke="black" points="803,-252 627,-252 627,-216 803,-216 803,-252"/>
<text text-anchor="middle" x="715" y="-230.3" font-family="Times,serif" font-size="14.00">Receive 30% ruling approval</text>
</g>
<!-- sponsor30&#45;&gt;receive30 -->
<g id="edge17" class="edge"><title>sponsor30&#45;&gt;receive30</title>
<path fill="none" stroke="black" d="M715,-287.697C715,-279.983 715,-270.712 715,-262.112"/>
<polygon fill="black" stroke="black" points="718.5,-262.104 715,-252.104 711.5,-262.104 718.5,-262.104"/>
</g>
<!-- Get a Dutch Drivers license -->
<g id="node25" class="node"><title>Get a Dutch Drivers license</title>
<polygon fill="none" stroke="black" points="799,-180 631,-180 631,-144 799,-144 799,-180"/>
<text text-anchor="middle" x="715" y="-158.3" font-family="Times,serif" font-size="14.00">Get a Dutch Drivers license</text>
</g>
<!-- receive30&#45;&gt;Get a Dutch Drivers license -->
<g id="edge18" class="edge"><title>receive30&#45;&gt;Get a Dutch Drivers license</title>
<path fill="none" stroke="black" d="M715,-215.697C715,-207.983 715,-198.712 715,-190.112"/>
<polygon fill="black" stroke="black" points="718.5,-190.104 715,-180.104 711.5,-190.104 718.5,-190.104"/>
</g>
<!-- bankaccount -->
<g id="node21" class="node"><title>bankaccount</title>
<polygon fill="none" stroke="black" points="189.5,-180 52.5,-180 52.5,-144 189.5,-144 189.5,-180"/>
<text text-anchor="middle" x="121" y="-158.3" font-family="Times,serif" font-size="14.00">Open a Bank Account</text>
</g>
<!-- bsn&#45;&gt;bankaccount -->
<g id="edge22" class="edge"><title>bsn&#45;&gt;bankaccount</title>
<path fill="none" stroke="black" d="M245.636,-215.876C222.98,-206.264 194.527,-194.193 170.53,-184.013"/>
<polygon fill="black" stroke="black" points="171.805,-180.752 161.232,-180.068 169.071,-187.196 171.805,-180.752"/>
</g>
<!-- digid -->
<g id="node24" class="node"><title>digid</title>
<g id="a_node24"><a xlink:href="https://www.digid.nl/en/apply-or-activate-digid" xlink:title="Apply for a DigiD for online access to government sites">
<polygon fill="none" stroke="black" points="530.5,-180 207.5,-180 207.5,-144 530.5,-144 530.5,-180"/>
<text text-anchor="middle" x="369" y="-158.3" font-family="Times,serif" font-size="14.00">Apply for a DigiD for online access to government sites</text>
</a>
</g>
</g>
<!-- bsn&#45;&gt;digid -->
<g id="edge21" class="edge"><title>bsn&#45;&gt;digid</title>
<path fill="none" stroke="black" d="M306.517,-215.697C316.869,-206.965 329.586,-196.24 340.839,-186.75"/>
<polygon fill="black" stroke="black" points="343.331,-189.227 348.719,-180.104 338.818,-183.876 343.331,-189.227"/>
</g>
<!-- bankaccount&#45;&gt;getfibre -->
<g id="edge25" class="edge"><title>bankaccount&#45;&gt;getfibre</title>
<path fill="none" stroke="black" d="M99.4944,-143.697C88.5375,-134.881 75.0541,-124.032 63.1751,-114.474"/>
<polygon fill="black" stroke="black" points="65.2435,-111.646 55.2582,-108.104 60.8554,-117.1 65.2435,-111.646"/>
</g>
<!-- zorgverzekering -->
<g id="node22" class="node"><title>zorgverzekering</title>
<polygon fill="none" stroke="black" points="331.5,-108 86.5,-108 86.5,-72 331.5,-72 331.5,-108"/>
<text text-anchor="middle" x="209" y="-86.3" font-family="Times,serif" font-size="14.00">Apply for Zorgverzekering (Medical Aid)</text>
</g>
<!-- bankaccount&#45;&gt;zorgverzekering -->
<g id="edge23" class="edge"><title>bankaccount&#45;&gt;zorgverzekering</title>
<path fill="none" stroke="black" d="M142.753,-143.697C153.836,-134.881 167.474,-124.032 179.49,-114.474"/>
<polygon fill="black" stroke="black" points="181.85,-117.069 187.497,-108.104 177.493,-111.59 181.85,-117.069"/>
</g>
<!-- doctor -->
<g id="node23" class="node"><title>doctor</title>
<polygon fill="none" stroke="black" points="272,-36 146,-36 146,-0 272,-0 272,-36"/>
<text text-anchor="middle" x="209" y="-14.3" font-family="Times,serif" font-size="14.00">Register at a Doctor</text>
</g>
<!-- zorgverzekering&#45;&gt;doctor -->
<g id="edge24" class="edge"><title>zorgverzekering&#45;&gt;doctor</title>
<path fill="none" stroke="black" d="M209,-71.6966C209,-63.9827 209,-54.7125 209,-46.1124"/>
<polygon fill="black" stroke="black" points="212.5,-46.1043 209,-36.1043 205.5,-46.1044 212.5,-46.1043"/>
</g>
</g>
</svg>
